<svg width="21" height="21" viewBox="0 0 21 21" fill="none" xmlns="http://www.w3.org/2000/svg">
<path d="M5.97999 6.16313L7.03404 9.16352H4.92594L5.97999 6.16313Z" fill="black"/>
<path fill-rule="evenodd" clip-rule="evenodd" d="M0.0159912 2.09952C0.0159912 1.13302 0.799493 0.349518 1.76599 0.349518H18.266C19.2325 0.349518 20.016 1.13302 20.016 2.09952V20.3495L16.016 16.3495H1.76599C0.799492 16.3495 0.0159912 15.566 0.0159912 14.5995V2.09952ZM3.75399 12.4995L4.45379 10.5075H7.50619L8.20599 12.4995H9.69399L6.70599 4.09952H5.25399L2.26599 12.4995H3.75399ZM11.016 6.97452V5.72452H13.891V4.34952H15.141V5.72452H18.016V6.84952C18.016 7.34952 17.3634 9.34894 16.266 10.4745C16.0696 10.6759 15.8364 10.8566 15.579 11.0185C16.2269 11.1075 16.766 11.0995 16.766 11.0995V12.3495C16.6513 12.34 16.5265 12.3316 16.3937 12.3227C15.6482 12.2726 14.6482 12.2055 13.7364 11.8155C12.3429 12.2371 11.016 12.3495 11.016 12.3495V11.0995C11.016 11.0995 11.6165 11.0277 12.3767 10.8394C11.6337 9.98616 11.308 8.85777 11.091 8.1061L11.0908 8.1055C11.0644 8.01422 11.0397 7.9285 11.016 7.84952H12.266C12.266 7.84952 12.8495 9.63591 13.7731 10.3859C14.1939 10.2073 14.5881 9.98905 14.891 9.72452C15.8809 8.85986 16.641 6.97452 16.641 6.97452H11.016Z" fill="black"/>
</svg>
