<svg width="25" height="22" viewBox="0 0 25 22" fill="none" xmlns="http://www.w3.org/2000/svg">
<path d="M3.7545 21.714C2.00898 20.0622 0.799221 17.9247 0.281721 15.5779C-0.235778 13.2311 -0.0372132 10.783 0.851732 8.55026C1.74068 6.31754 3.2791 4.40291 5.26802 3.05403C7.25693 1.70515 9.60483 0.98407 12.008 0.98407C14.4112 0.98407 16.7591 1.70515 18.748 3.05403C20.7369 4.40291 22.2753 6.31754 23.1643 8.55026C24.0532 10.783 24.2518 13.2311 23.7343 15.5779C23.2168 17.9247 22.007 20.0622 20.2615 21.714C19.2596 18.7409 17.1715 16.2561 14.4155 14.757C15.329 14.2274 16.0424 13.4114 16.4451 12.4353C16.8479 11.4592 16.9175 10.3776 16.6433 9.35789C16.3691 8.33821 15.7663 7.4374 14.9283 6.79499C14.0903 6.15257 13.0639 5.8044 12.008 5.8044C10.9521 5.8044 9.92566 6.15257 9.08767 6.79499C8.24967 7.4374 7.64689 8.33821 7.37268 9.35789C7.09847 10.3776 7.16814 11.4592 7.5709 12.4353C7.97365 13.4114 8.68702 14.2274 9.6005 14.757C6.84388 16.2556 4.75591 18.7411 3.7555 21.715L3.7545 21.714Z" fill="black"/>
</svg>
